PathFileType	4	(X/Y/Z)	C:\Documents and Settings\user\My Documents\MotionFiles\BioEngCompLab_Data\Delaware\Subject 2\running_3001_smoothed.trc																																																																																																																									
DataRate	CameraRate	NumFrames	NumMarkers	Units	OrigDataRate	OrigDataStartFrame	OrigNumFrames																																																																																																																					
60	60	6	41	mm	60	226	600																																																																																																																					
Frame#	Time	R.ASIS			L.ASIS			V.Sacral			R.Thigh.Upper			R.Thigh.Front			R.Thigh.Rear			L.Thigh.Upper			L.Thigh.Front			L.Thigh.Rear			R.Shank.Upper			R.Shank.Front			R.Shank.Rear			L.Shank.Upper			L.Shank.Front			L.Shank.Rear			R.Heel			R.Midfoot.Sup			R.Midfoot.Lat			R.Toe.Tip			L.Heel			L.Midfoot.Sup			L.Midfoot.Lat			L.Toe.Tip			Sternum			R.Acromium			L.Acromium			R.Bicep			L.Bicep			R.Elbow			L.Elbow			R.Wrist.Med			R.Wrist.Lat			L.Wrist.Med			L.Wrist.Lat			R.Toe.Lat			R.Toe.Med			L.Toe.Lat			L.Toe.Med			R.Temple			L.Temple			Top.Head		
		X1	Y1	Z1	X2	Y2	Z2	X3	Y3	Z3	X4	Y4	Z4	X5	Y5	Z5	X6	Y6	Z6	X7	Y7	Z7	X8	Y8	Z8	X9	Y9	Z9	X10	Y10	Z10	X11	Y11	Z11	X12	Y12	Z12	X13	Y13	Z13	X14	Y14	Z14	X15	Y15	Z15	X16	Y16	Z16	X17	Y17	Z17	X18	Y18	Z18	X19	Y19	Z19	X20	Y20	Z20	X21	Y21	Z21	X22	Y22	Z22	X23	Y23	Z23	X24	Y24	Z24	X25	Y25	Z25	X26	Y26	Z26	X27	Y27	Z27	X28	Y28	Z28	X29	Y29	Z29	X30	Y30	Z30	X31	Y31	Z31	X32	Y32	Z32	X33	Y33	Z33	X34	Y34	Z34	X35	Y35	Z35	X36	Y36	Z36	X37	Y37	Z37	X38	Y38	Z38	X39	Y39	Z39	X40	Y40	Z40	X41	Y41	Z41

226	3.750000	840.037900	1041.950560	-62.906850	841.873900	1015.368410	-312.034300	652.052000	1052.723630	-196.864900	910.562500	786.313050	-0.114800	1002.408510	784.827580	-62.287960	952.115660	697.354860	-6.967870	709.347720	719.279110	-327.381590	746.361940	644.331120	-242.145370	650.803160	606.125310	-300.726720	984.476200	527.609070	-21.303380	1015.513670	449.583440	-68.713480	948.538020	452.726650	-20.517050	523.724670	456.328520	-287.680420	543.767700	366.472050	-230.122910	472.872380	405.396030	-285.128850	781.679500	198.372790	-108.138770	911.802250	162.903260	-139.463040	881.528320	159.501450	-42.905830	1031.665410	141.646770	-106.570080	256.997890	187.570080	-193.686660	369.021970	105.105580	-137.559740	348.424560	91.990580	-237.112000	468.608430	43.720420	-160.837690	891.004090	1384.647950	-185.289890	758.715210	1469.435910	19.896610	792.205810	1498.586300	-386.457340	599.122380	1326.903440	46.263130	0.000000	0.000000	0.000000	522.180970	1257.654420	63.388080	749.481320	1195.314330	-495.691960	648.791260	1034.495730	90.386130	689.817570	1045.510380	43.670270	984.333860	1147.911620	-406.914000	970.027220	1195.556880	-358.638850	963.831050	129.005980	-30.890850	966.910640	119.379760	-141.744200	398.813870	44.452820	-246.322690	407.164490	47.012710	-131.996960	951.582640	1603.125240	-107.561780	962.545230	1614.066890	-250.132860	1026.497680	1683.642330	-185.191420	
227	3.767000	844.346130	1051.922000	-63.132240	846.302670	1023.424800	-311.080140	657.289180	1062.783330	-195.539660	910.553530	790.431640	-2.107540	1002.022400	787.404110	-64.181580	949.203980	699.784790	-10.098980	693.301210	734.303220	-329.985170	728.317690	654.098880	-248.723330	626.515380	624.902650	-304.460110	991.864750	524.627260	-23.121180	1036.495000	452.540530	-69.350230	970.345760	444.513950	-21.254930	489.799410	482.019290	-289.477290	512.436830	389.754460	-237.937480	438.692660	432.399810	-286.488100	849.528320	159.978520	-108.082540	985.899540	151.384960	-139.103700	957.057980	141.375870	-42.661540	1107.491580	150.257840	-107.467900	225.094960	222.567570	-194.790650	325.768220	124.746540	-140.441990	299.592560	111.995160	-238.088820	411.023010	49.200500	-162.918200	892.344850	1396.654540	-181.842830	754.180600	1481.267460	17.992880	796.890260	1507.536620	-385.944090	589.014650	1347.053590	39.205270	0.000000	0.000000	0.000000	507.651430	1281.124630	53.135850	760.934750	1202.405880	-494.400820	622.709720	1052.307500	85.920920	666.592470	1061.299800	41.064920	995.859680	1176.525880	-398.370360	977.419130	1224.257570	-352.833860	1043.465210	126.824290	-31.383670	1048.282470	118.461980	-142.132830	341.491880	56.882570	-246.751040	354.883480	60.213480	-133.471690	949.586850	1612.243040	-104.845910	962.871090	1623.493290	-247.423600	1025.167600	1693.210330	-181.511720	
228	3.783000	848.506530	1058.098140	-62.607800	850.145810	1029.847900	-309.922000	661.767210	1070.043580	-193.941890	908.583130	789.380130	-3.837100	998.682560	783.541140	-66.927480	942.887880	696.218930	-12.484950	682.346130	746.008180	-332.070220	716.789490	661.707400	-254.709660	610.409790	639.468570	-307.678470	995.934750	517.426270	-25.302370	1051.479610	452.944980	-71.499410	988.355530	434.460690	-22.327100	465.523320	503.738890	-291.041080	487.360140	408.896940	-244.441590	413.148770	456.694490	-287.541560	911.825200	128.183580	-108.524340	1050.793460	145.055400	-140.029710	1024.622440	128.840960	-43.414640	1171.108400	160.801860	-109.860940	198.524080	259.507110	-195.914550	286.571380	148.270660	-143.253040	254.828810	136.390840	-239.003650	356.466980	58.360410	-165.089580	893.669860	1406.539670	-178.486980	750.459900	1490.640630	15.932830	800.272340	1513.771730	-385.259860	580.342100	1364.783330	32.448090	0.000000	0.000000	0.000000	495.868260	1301.281490	44.045930	770.102720	1206.961300	-492.137420	600.303220	1067.671260	82.179090	646.524720	1074.672490	38.923350	1004.060060	1198.080320	-390.865480	982.887570	1245.881710	-348.453920	1112.430300	128.764770	-33.258890	1118.195310	122.236660	-144.090770	287.614010	74.348380	-247.094330	306.715670	78.703270	-134.876940	947.902160	1619.192870	-102.893810	963.092770	1630.342530	-245.443620	1023.853640	1700.421880	-178.861770	
229	3.800000	852.106320	1060.364140	-61.338780	853.185420	1033.986690	-308.598480	665.217530	1073.879760	-192.189620	905.781920	784.595030	-5.054530	993.487850	775.430480	-70.463850	935.318970	688.948910	-13.961620	677.716130	752.722530	-333.116240	712.355470	665.587460	-258.771640	603.374020	647.635860	-310.119170	997.180910	508.134670	-28.041720	1060.760990	451.448910	-74.897580	1001.564580	424.169460	-24.159740	451.661100	519.319950	-292.777770	468.614900	422.262210	-249.249690	396.804960	476.258390	-288.872190	963.855830	103.493260	-109.915210	1102.616580	142.078130	-142.574890	1079.810670	120.519140	-45.617320	1220.370850	170.688980	-113.884230	177.333240	296.979610	-197.267440	251.606980	175.002550	-145.922060	215.019200	164.622650	-239.985610	305.730830	71.574760	-167.373060	894.992130	1413.646000	-175.228150	747.430300	1496.905880	14.018210	802.565370	1517.057860	-384.421080	573.078670	1378.989260	26.464950	0.000000	0.000000	0.000000	486.745480	1316.997800	36.858910	776.999820	1208.749150	-488.966670	581.803410	1079.510500	79.652280	629.771670	1084.648440	37.587200	1009.838620	1211.151610	-384.292510	987.308230	1259.410890	-344.962710	1167.291750	132.243930	-36.820350	1173.294680	127.980710	-147.859830	238.247700	96.859940	-247.538150	262.939640	102.208450	-136.165410	946.695740	1623.455930	-101.681650	963.138120	1634.148440	-244.191190	1022.651120	1704.745360	-177.279950	
230	3.817000	854.799500	1059.111450	-59.464350	855.400330	1035.385130	-307.098420	667.537050	1073.946530	-190.480350	903.220520	777.624450	-5.728170	987.932920	765.421690	-74.355970	928.630740	680.300350	-14.914770	679.671810	753.779050	-333.073700	714.725340	664.903320	-260.529720	604.961000	648.505000	-311.775210	996.037290	498.427800	-31.303010	1064.962160	448.232970	-78.928500	1009.080320	414.536870	-27.014510	447.788270	527.941040	-294.830110	456.338900	429.518550	-252.519590	389.665990	490.218170	-290.685670	1001.473080	85.654130	-112.542560	1138.283450	140.106640	-146.869090	1118.891970	114.462600	-49.509060	1253.866330	177.413350	-119.514140	162.096890	333.680270	-199.102370	221.467220	203.855550	-148.482740	181.284850	195.671810	-241.241820	259.886050	88.673620	-169.843950	896.270690	1417.349370	-172.127290	745.103150	1499.692990	12.555800	804.035460	1517.264280	-383.531070	567.507200	1388.680420	21.926460	0.000000	0.000000	0.000000	480.140530	1327.503910	32.119300	781.577270	1207.664790	-485.184170	567.489440	1087.001830	78.743590	616.560000	1090.511840	37.395880	1013.795100	1215.012450	-378.581270	991.074580	1264.306150	-341.774720	1205.390380	134.482330	-42.164210	1211.115600	132.692570	-153.473130	194.698260	123.756820	-248.343340	224.079970	129.738460	-137.415050	946.062810	1624.677000	-101.112490	962.976140	1634.664180	-243.589290	1021.642580	1705.865110	-176.666890	
231	3.833000	856.382320	1054.992310	-57.217640	856.858640	1033.764040	-305.407620	668.724430	1070.178470	-189.016340	901.654790	769.670840	-6.014780	983.528380	755.374080	-77.906320	924.333370	671.868590	-15.993460	687.018980	749.397460	-332.282810	722.672970	659.654720	-260.576780	613.543700	642.408940	-312.837890	993.190920	489.073580	-34.879150	1064.925540	442.907620	-83.180290	1010.792480	405.532620	-30.870790	452.621490	529.799130	-297.139430	450.631650	431.201110	-254.803360	391.181460	498.528530	-292.837860	1021.781130	73.842040	-116.417090	1155.982910	136.908710	-152.771150	1139.464840	108.752170	-55.009670	1271.018070	179.024800	-126.539920	153.764210	368.422150	-201.619260	197.174550	233.431780	-151.067860	154.883680	228.112150	-243.022350	220.268880	108.859660	-172.620800	897.374020	1417.112670	-169.302230	743.469600	1498.831180	11.762050	804.921200	1514.326050	-382.747530	563.798460	1393.033570	19.418930	0.000000	0.000000	0.000000	475.824710	1332.305790	30.127930	783.805790	1203.617800	-481.154390	557.631710	1089.611940	79.765300	607.156920	1091.827270	38.643810	1016.062260	1209.690430	-373.710210	994.160340	1260.468870	-338.559230	1225.232180	133.171160	-49.101810	1230.368530	133.761470	-160.690310	158.435870	153.707200	-249.806110	191.063720	159.705830	-138.845170	945.999330	1622.671260	-101.048130	962.624150	1631.847050	-243.510190	1020.886720	1703.679930	-176.822910	
